<svg width="18" height="18" viewBox="0 0 18 18" fill="none" xmlns="http://www.w3.org/2000/svg">
<g clip-path="url(#clip0_358_450)">
<path d="M17.3152 4.15895L9.36679 0.131553L9.36348 0.1299C9.00956 -0.0463026 8.58902 -0.0423651 8.23841 0.140447L4.82934 1.94973C4.80164 1.96147 4.77503 1.97571 4.74954 1.99209L0.664312 4.16025C0.254531 4.37481 0 4.79521 0 5.2579V12.742C0 13.2047 0.254531 13.625 0.664312 13.8396L8.23503 17.8577L8.23845 17.8595C8.41538 17.9516 8.61193 17.9996 8.81139 17.9994C9.00295 17.9996 9.19193 17.9553 9.36348 17.87L17.3152 13.8409C17.7377 13.6297 18 13.2053 18 12.7329V5.26707C18 4.79461 17.7377 4.37017 17.3152 4.15895ZM8.72708 1.07465C8.75265 1.06158 8.7809 1.05465 8.80961 1.05439C8.83832 1.05413 8.8667 1.06057 8.89249 1.07318L16.3326 4.84298L13.437 6.28456L6.16317 2.43541L8.72708 1.07465ZM8.27662 16.6862L1.15699 12.9075L1.15358 12.9057C1.12362 12.8901 1.0985 12.8666 1.08099 12.8378C1.06348 12.8089 1.05425 12.7758 1.0543 12.742V5.73363L8.27662 9.49971V16.6862ZM8.80935 8.58846L1.62675 4.84309L5.03775 3.03279L12.2755 6.86281L8.80935 8.58846ZM16.9456 12.7328C16.9458 12.7672 16.9363 12.8009 16.9182 12.8301C16.9001 12.8594 16.8741 12.8829 16.8433 12.8981L9.33096 16.7045V9.50649L12.7898 7.78447V9.58992C12.7898 9.88105 13.0259 10.1171 13.317 10.1171C13.6081 10.1171 13.8442 9.88105 13.8442 9.58992V7.25955L16.9456 5.71549V12.7328Z" fill="#02341E"/>
</g>
<defs>
<clipPath id="clip0_358_450">
<rect width="18" height="18" fill="white"/>
</clipPath>
</defs>
</svg>
