<svg width="55" height="56" viewBox="0 0 55 56" fill="none" xmlns="http://www.w3.org/2000/svg">
<g clip-path="url(#clip0_162_492)">
<path d="M30.4496 32.2634C25.4405 32.2634 21.2685 28.691 20.3339 23.9561C18.5158 25.7123 17.3804 28.1705 17.3804 30.8981C17.3804 36.2307 21.703 40.5533 27.0355 40.5533C32.3681 40.5533 36.6907 36.2307 36.6907 30.8981C36.6907 30.6538 36.6724 30.4154 36.654 30.1759C34.9267 31.4813 32.7823 32.2634 30.4496 32.2634Z" fill="#5CBD6B"/>
<path d="M27.0346 40.5506C32.367 40.5506 36.6898 36.2278 36.6898 30.8954C36.6898 25.563 32.367 21.2402 27.0346 21.2402C21.7022 21.2402 17.3795 25.563 17.3795 30.8954C17.3795 36.2278 21.7022 40.5506 27.0346 40.5506Z" stroke="#02341E" stroke-width="2.41379"/>
<path d="M27.0346 21.2404V7.72314" stroke="#02341E" stroke-width="1.93103" stroke-linecap="round"/>
<path d="M27.0346 8.69045C29.1676 8.69045 30.8967 6.96134 30.8967 4.82838C30.8967 2.69542 29.1676 0.966309 27.0346 0.966309C24.9017 0.966309 23.1725 2.69542 23.1725 4.82838C23.1725 6.96134 24.9017 8.69045 27.0346 8.69045Z" fill="#5CBD6B" stroke="#02341E" stroke-width="1.93103"/>
<path d="M36.6898 25.1033L46.345 13.5171" stroke="#02341E" stroke-width="1.93103" stroke-linecap="round"/>
<path d="M49.2415 14.4839C51.3744 14.4839 53.1035 12.7548 53.1035 10.6218C53.1035 8.48887 51.3744 6.75977 49.2415 6.75977C47.1085 6.75977 45.3794 8.48887 45.3794 10.6218C45.3794 12.7548 47.1085 14.4839 49.2415 14.4839Z" fill="#5CBD6B" stroke="#02341E" stroke-width="1.93103"/>
<path d="M36.6898 36.6895L46.345 48.2757" stroke="#02341E" stroke-width="1.93103" stroke-linecap="round"/>
<path d="M49.2415 55.0347C51.3744 55.0347 53.1035 53.3056 53.1035 51.1726C53.1035 49.0397 51.3744 47.3105 49.2415 47.3105C47.1085 47.3105 45.3794 49.0397 45.3794 51.1726C45.3794 53.3056 47.1085 55.0347 49.2415 55.0347Z" fill="#5CBD6B" stroke="#02341E" stroke-width="1.93103"/>
<path d="M17.3794 36.6895L7.72424 48.2757" stroke="#02341E" stroke-width="1.93103" stroke-linecap="round"/>
<path d="M4.82765 55.0347C6.96061 55.0347 8.68971 53.3056 8.68971 51.1726C8.68971 49.0397 6.96061 47.3105 4.82765 47.3105C2.69468 47.3105 0.965576 49.0397 0.965576 51.1726C0.965576 53.3056 2.69468 55.0347 4.82765 55.0347Z" fill="#5CBD6B" stroke="#02341E" stroke-width="1.93103"/>
</g>
<defs>
<clipPath id="clip0_162_492">
<rect width="54.069" height="56" fill="white"/>
</clipPath>
</defs>
</svg>
