<svg width="18" height="18" viewBox="0 0 18 18" fill="none" xmlns="http://www.w3.org/2000/svg">
<path fill-rule="evenodd" clip-rule="evenodd" d="M15.3593 5.68358L11.3198 2.34383C10.6697 1.79875 9.84837 1.5 9 1.5C8.15163 1.5 7.33035 1.79875 6.68025 2.34383L2.64075 5.68358C1.91325 6.28583 1.5 7.19783 1.5 8.14958V13.3583C1.5 15.0496 2.8005 16.5001 4.5 16.5001H6C6.39783 16.5001 6.77936 16.342 7.06066 16.0607C7.34196 15.7794 7.5 15.3979 7.5 15.0001V12.5611C7.5 11.6101 8.214 10.9186 9 10.9186C9.786 10.9186 10.5 11.6101 10.5 12.5611V15.0001C10.5 15.3979 10.658 15.7794 10.9393 16.0607C11.2206 16.342 11.6022 16.5001 12 16.5001H13.5C15.1995 16.5001 16.5 15.0496 16.5 13.3576V8.14958C16.5 7.19783 16.0875 6.28583 15.3593 5.68358Z" fill="white"/>
</svg>
