<svg width="51" height="56" viewBox="0 0 51 56" fill="none" xmlns="http://www.w3.org/2000/svg">
<g clip-path="url(#clip0_162_459)">
<path d="M12.0837 1.1582H4.70099V54.8442H12.0837C13.1065 54.8442 13.935 54.0157 13.935 52.9929V3.00944C13.935 1.98663 13.1065 1.1582 12.0837 1.1582Z" fill="#5CBD6B"/>
<path d="M12.2644 1.1582H3.00822C1.98581 1.1582 1.15698 1.98703 1.15698 3.00944V52.9929C1.15698 54.0153 1.98581 54.8442 3.00822 54.8442H12.2644C13.2868 54.8442 14.1157 54.0153 14.1157 52.9929V3.00944C14.1157 1.98703 13.2868 1.1582 12.2644 1.1582Z" stroke="#02341E" stroke-width="2.31405"/>
<g opacity="0.6">
<path d="M29.6031 1.1582H22.2204V54.8442H29.6031C30.626 54.8442 31.4544 54.0157 31.4544 52.9929V3.00944C31.4544 1.98663 30.626 1.1582 29.6031 1.1582Z" fill="#5CBD6B"/>
<path d="M29.7836 1.1582H20.5274C19.505 1.1582 18.6761 1.98703 18.6761 3.00944V52.9929C18.6761 54.0153 19.505 54.8442 20.5274 54.8442H29.7836C30.806 54.8442 31.6348 54.0153 31.6348 52.9929V3.00944C31.6348 1.98703 30.806 1.1582 29.7836 1.1582Z" stroke="#02341E" stroke-width="2.31405"/>
</g>
<g opacity="0.4">
<path d="M47.1223 1.1582H39.7396V54.8442H47.1223C48.1451 54.8442 48.9735 54.0157 48.9735 52.9929V3.00944C48.9735 1.98663 48.1451 1.1582 47.1223 1.1582Z" fill="#5CBD6B"/>
<path d="M47.3028 1.1582H38.0466C37.0241 1.1582 36.1953 1.98703 36.1953 3.00944V52.9929C36.1953 54.0153 37.0241 54.8442 38.0466 54.8442H47.3028C48.3252 54.8442 49.154 54.0153 49.154 52.9929V3.00944C49.154 1.98703 48.3252 1.1582 47.3028 1.1582Z" stroke="#02341E" stroke-width="2.31405"/>
</g>
</g>
<defs>
<clipPath id="clip0_162_459">
<rect width="50.3111" height="56" fill="white"/>
</clipPath>
</defs>
</svg>
