<svg width="68" height="56" viewBox="0 0 68 56" fill="none" xmlns="http://www.w3.org/2000/svg">
<g clip-path="url(#clip0_162_474)">
<path d="M62.2633 34.6278H5.29862C4.18522 34.6278 3.61098 33.2974 4.37378 32.4872L22.5048 13.2324C22.7445 12.9775 23.079 12.8335 23.4296 12.8335H43.1525C43.4908 12.8335 43.8158 12.969 44.0536 13.2087L63.1644 32.4626C63.9604 33.2642 63.3918 34.6278 62.2633 34.6278Z" stroke="#02341E" stroke-width="2.36895"/>
<path d="M4.3739 30.2902V16.0452C4.3739 15.8083 4.46771 15.5809 4.63543 15.4132L12.5487 8.44471C12.8301 8.16233 13.3124 8.36227 13.3124 8.76121V22.449C13.3124 22.6821 13.2214 22.9057 13.0585 23.0734L5.90708 30.9146C5.34706 31.4879 4.3739 31.0918 4.3739 30.2902Z" fill="#5CBD6B" stroke="#02341E" stroke-width="2.36895"/>
<path d="M63.5358 30.2904V16.0454C63.5358 15.8085 63.442 15.5811 63.2743 15.4134L55.361 9.39247C55.0796 9.11009 54.5973 9.31003 54.5973 9.70896V23.3967C54.5973 23.6298 54.6883 23.8535 54.8512 24.0212L62.0026 30.9148C62.5626 31.4881 63.5358 31.092 63.5358 30.2904Z" fill="#5CBD6B" stroke="#02341E" stroke-width="2.36895"/>
<path d="M28.5893 1.18506H38.0651C38.4735 1.18506 38.8042 1.51671 38.8042 1.92417V12.1391H27.8492V1.92417C27.8492 1.51576 28.1818 1.18506 28.5893 1.18506Z" fill="#5CBD6B" stroke="#02341E" stroke-width="2.36895"/>
<path d="M25.6546 26.6997H41.0006C41.4091 26.6997 41.7398 27.0314 41.7398 27.4388V40.8452H24.9146V27.4388C24.9146 27.0304 25.2472 26.6997 25.6546 26.6997Z" fill="#5CBD6B" stroke="#02341E" stroke-width="2.36895"/>
<path d="M25.0302 54.8167L28.2198 42.6138" stroke="#02341E" stroke-width="2.36895" stroke-linecap="round" stroke-linejoin="round"/>
<path d="M41.7397 54.8167L38.5502 42.6138" stroke="#02341E" stroke-width="2.36895" stroke-linecap="round" stroke-linejoin="round"/>
<path d="M6.95691 46.9475L10.1465 34.7446" stroke="#02341E" stroke-width="2.36895" stroke-linecap="round" stroke-linejoin="round"/>
<path d="M1.18433 43.4236L4.37388 31.2207" stroke="#02341E" stroke-width="2.36895" stroke-linecap="round" stroke-linejoin="round"/>
<path d="M66.7254 43.4236L63.5359 31.2207" stroke="#02341E" stroke-width="2.36895" stroke-linecap="round" stroke-linejoin="round"/>
<path d="M60.662 46.9475L57.4724 34.7446" stroke="#02341E" stroke-width="2.36895" stroke-linecap="round" stroke-linejoin="round"/>
<path d="M25.6783 40.8486H40.976C42.0866 40.8486 42.9877 41.7498 42.9877 42.8603V44.728C42.9877 45.4302 42.4173 46.0006 41.7151 46.0006H24.9382C24.2361 46.0006 23.6656 45.4302 23.6656 44.728V42.8603C23.6656 41.7498 24.5668 40.8486 25.6774 40.8486H25.6783Z" fill="#5CBD6B" stroke="#02341E" stroke-width="2.36895"/>
</g>
<defs>
<clipPath id="clip0_162_474">
<rect width="67.9101" height="56" fill="white"/>
</clipPath>
</defs>
</svg>
