<svg width="18" height="18" viewBox="0 0 18 18" fill="none" xmlns="http://www.w3.org/2000/svg">
<path d="M15.5215 6.09375C15.4562 6.09375 15.3936 6.11968 15.3475 6.16583C15.3013 6.21198 15.2754 6.27458 15.2754 6.33984V8.08598C15.2754 8.15125 15.3013 8.21385 15.3475 8.26C15.3936 8.30615 15.4562 8.33208 15.5215 8.33208C15.5868 8.33208 15.6493 8.30615 15.6955 8.26C15.7417 8.21385 15.7676 8.15125 15.7676 8.08598V6.33984C15.7676 6.27458 15.7417 6.21198 15.6955 6.16583C15.6493 6.11968 15.5868 6.09375 15.5215 6.09375Z" fill="#02341E"/>
<path d="M17.0859 11.1445H16.612V1.96875C16.612 1.90348 16.5861 1.84089 16.54 1.79474C16.4938 1.74858 16.4312 1.72266 16.3659 1.72266H9.66797V0.914062C9.66797 0.848794 9.64204 0.786199 9.59589 0.740048C9.54974 0.693896 9.48714 0.667969 9.42188 0.667969H8.57812C8.51286 0.667969 8.45026 0.693896 8.40411 0.740048C8.35796 0.786199 8.33203 0.848794 8.33203 0.914062V1.72266H1.63406C1.56879 1.72266 1.5062 1.74858 1.46005 1.79474C1.4139 1.84089 1.38797 1.90348 1.38797 1.96875V11.1445H0.914062C0.848794 11.1445 0.786199 11.1705 0.740048 11.2166C0.693896 11.2628 0.667969 11.3254 0.667969 11.3906V12.6562C0.667969 12.7215 0.693896 12.7841 0.740048 12.8303C0.786199 12.8764 0.848794 12.9023 0.914062 12.9023H6.5603L4.81866 16.364C4.73903 16.5222 4.72553 16.7057 4.78114 16.8739C4.83675 17.0421 4.9569 17.1813 5.11516 17.2609C5.27343 17.3406 5.45685 17.3541 5.62506 17.2985C5.79328 17.2429 5.93251 17.1227 6.01214 16.9644L8.05612 12.9023H9.94387L11.988 16.9647C12.0677 17.1229 12.207 17.243 12.3752 17.2986C12.5435 17.3541 12.7269 17.3405 12.8851 17.2608C13.0433 17.1811 13.1634 17.0418 13.219 16.8736C13.2745 16.7053 13.2609 16.5219 13.1812 16.3637L11.4397 12.9023H17.0859C17.1512 12.9023 17.2138 12.8764 17.26 12.8303C17.3061 12.7841 17.332 12.7215 17.332 12.6562V11.3906C17.332 11.3254 17.3061 11.2628 17.26 11.2166C17.2138 11.1705 17.1512 11.1445 17.0859 11.1445ZM8.82422 1.16016H9.17578V1.72266H8.82422V1.16016ZM1.88016 2.21484H16.1198V11.1445H1.88016V2.21484ZM5.57255 16.7431C5.56216 16.7637 5.54781 16.7821 5.53032 16.7972C5.51284 16.8122 5.49255 16.8237 5.47063 16.8309C5.4487 16.8382 5.42557 16.841 5.40254 16.8393C5.37952 16.8376 5.35706 16.8314 5.33644 16.821C5.31582 16.8106 5.29745 16.7963 5.28237 16.7788C5.2673 16.7613 5.25582 16.741 5.24858 16.7191C5.24135 16.6972 5.23851 16.674 5.24021 16.651C5.24192 16.628 5.24814 16.6055 5.25853 16.5849L7.11127 12.9023H7.50502L5.57255 16.7431ZM12.7418 16.5852C12.7553 16.612 12.7617 16.6418 12.7604 16.6718C12.7591 16.7018 12.7501 16.7309 12.7343 16.7565C12.7186 16.782 12.6965 16.8031 12.6703 16.8177C12.6441 16.8323 12.6145 16.8399 12.5845 16.8398C12.552 16.8397 12.5202 16.8306 12.4925 16.8135C12.4648 16.7965 12.4424 16.7722 12.4276 16.7432L10.4948 12.9023H10.8886L12.7418 16.5852ZM16.8398 12.4102H1.16016V11.6367H16.8398V12.4102Z" fill="#02341E"/>
</svg>
