<svg width="38" height="56" viewBox="0 0 38 56" fill="none" xmlns="http://www.w3.org/2000/svg">
<g clip-path="url(#clip0_162_503)">
<path d="M24.9616 37.8548H8.5521L5.73433 23.0449C5.57998 22.2718 4.82826 21.77 4.05516 21.9244L1.98309 22.338C1.20999 22.4923 0.708844 23.2441 0.862528 24.0165L4.02977 41.1844C4.02977 41.9729 4.66856 42.6117 5.45703 42.6117H24.9616C25.7501 42.6117 26.3889 41.9729 26.3889 41.1844V39.2814C26.3889 38.4929 25.7501 37.8548 24.9616 37.8548Z" fill="#5CBD6B" stroke="#02341E" stroke-width="1.67049"/>
<path d="M15.0616 42.6113V50.2227" stroke="#02341E" stroke-width="1.67049" stroke-linecap="round"/>
<path d="M23.6072 51.9803C23.541 51.7244 23.3185 51.5312 23.0419 51.5312H7.08142C6.82817 51.5312 6.61502 51.6916 6.52949 51.9148C7.23844 51.9629 7.76765 52.2756 8.11845 52.7206H21.9962C22.3597 52.2963 22.8982 52.0083 23.6072 51.9803Z" fill="#02341E"/>
<path d="M15.0616 50.2217V52.0158" stroke="#02341E" stroke-width="1.67049" stroke-linecap="round"/>
<path d="M7.08543 55.3327C8.00506 55.3327 8.75057 54.5872 8.75057 53.6676C8.75057 52.748 8.00506 52.0024 7.08543 52.0024C6.1658 52.0024 5.42029 52.748 5.42029 53.6676C5.42029 54.5872 6.1658 55.3327 7.08543 55.3327Z" stroke="#02341E" stroke-width="1.33639"/>
<path d="M22.8956 55.3327C23.8152 55.3327 24.5607 54.5872 24.5607 53.6676C24.5607 52.748 23.8152 52.0024 22.8956 52.0024C21.9759 52.0024 21.2304 52.748 21.2304 53.6676C21.2304 54.5872 21.9759 55.3327 22.8956 55.3327Z" stroke="#02341E" stroke-width="1.33639"/>
<path d="M10.5948 10.3581C13.2245 10.3581 15.3563 8.22624 15.3563 5.59651C15.3563 2.96678 13.2245 0.834961 10.5948 0.834961C7.96503 0.834961 5.83321 2.96678 5.83321 5.59651C5.83321 8.22624 7.96503 10.3581 10.5948 10.3581Z" stroke="#02341E" stroke-width="1.67049"/>
<path d="M36.9684 47.366L32.6211 31.6701C32.2436 30.444 31.1103 29.6595 29.8895 29.6682C29.8802 29.6682 29.8708 29.6668 29.8614 29.6668H18.4988L16.4982 16.6631C16.1488 14.3913 14.1288 12.6707 11.8389 12.8731C9.32918 13.0943 7.56648 15.3802 7.94401 17.8298L10.0789 31.7042C10.4411 34.0602 11.6625 35.2362 15.0015 35.3138C15.6109 35.3278 16.396 35.3398 16.7682 35.3398H26.9682C27.4713 35.3398 27.9163 35.6679 28.0647 36.1497L31.5827 49.1507C32.0705 50.7357 33.8212 51.5849 35.3907 50.9328C36.7592 50.3648 37.4054 48.7812 36.969 47.3653L36.9684 47.366Z" stroke="#02341E" stroke-width="1.67049"/>
</g>
<defs>
<clipPath id="clip0_162_503">
<rect width="37.9387" height="56" fill="white"/>
</clipPath>
</defs>
</svg>
