<svg width="79" height="56" viewBox="0 0 79 56" fill="none" xmlns="http://www.w3.org/2000/svg">
<g clip-path="url(#clip0_162_446)">
<path d="M74.9456 23.4033H3.62223C2.39126 23.4033 1.39337 24.4012 1.39337 25.6322V32.3187C1.39337 33.5497 2.39126 34.5476 3.62223 34.5476H74.9456C76.1766 34.5476 77.1745 33.5497 77.1745 32.3187V25.6322C77.1745 24.4012 76.1766 23.4033 74.9456 23.4033Z" fill="#5CBD6B" stroke="#02341E" stroke-width="2.78607"/>
<path d="M10.3088 34.5474L8.0799 54.6071" stroke="#02341E" stroke-width="2.78607" stroke-linecap="round"/>
<path d="M68.2589 34.5474L70.4878 54.6071" stroke="#02341E" stroke-width="2.78607" stroke-linecap="round"/>
<path d="M39.2839 1.11523H21.453C20.2221 1.11523 19.2242 2.11313 19.2242 3.34409V21.1749C19.2242 22.4059 20.2221 23.4038 21.453 23.4038H39.2839C40.5148 23.4038 41.5127 22.4059 41.5127 21.1749V3.34409C41.5127 2.11313 40.5148 1.11523 39.2839 1.11523Z" stroke="#02341E" stroke-width="2.22886"/>
<path opacity="0.6" d="M37.0551 4.45703H23.6819C23.0665 4.45703 22.5675 4.95598 22.5675 5.57146V18.9446C22.5675 19.5601 23.0665 20.059 23.6819 20.059H37.0551C37.6705 20.059 38.1695 19.5601 38.1695 18.9446V5.57146C38.1695 4.95598 37.6705 4.45703 37.0551 4.45703Z" fill="#5CBD6B"/>
<path d="M30.3685 23.4033V34.5476" stroke="#02341E" stroke-width="2.22886"/>
<path d="M59.9007 14.4863H47.642C46.7188 14.4863 45.9703 15.2347 45.9703 16.158V21.7301C45.9703 22.6533 46.7188 23.4018 47.642 23.4018H59.9007C60.8239 23.4018 61.5723 22.6533 61.5723 21.7301V16.158C61.5723 15.2347 60.8239 14.4863 59.9007 14.4863Z" stroke="#02341E" stroke-width="2.22886"/>
</g>
<defs>
<clipPath id="clip0_162_446">
<rect width="78.5672" height="56" fill="white"/>
</clipPath>
</defs>
</svg>
